<?xml version="1.0" encoding="UTF-8"?>
<svg width="18px" height="19px" viewBox="0 0 18 19" version="1.1" xmlns="http://www.w3.org/2000/svg" xmlns:xlink="http://www.w3.org/1999/xlink">
    <!-- Generator: Sketch 44.1 (41455) - http://www.bohemiancoding.com/sketch -->
    <title>ico-facebook</title>
    <desc>Created with Sketch.</desc>
    <defs></defs>
    <g id="Page-1" stroke="none" stroke-width="1" fill="none" fill-rule="evenodd">
        <g id="右上のメニュー開閉時" transform="translate(-731.000000, -937.000000)" fill="#222222">
            <path d="M741.666667,944.381381 L745,944.381381 L745,947.572072 L741.666667,947.572072 L741.666667,955 L738.333333,955 L738.333333,947.572072 L735,947.572072 L735,944.381381 L738.333333,944.381381 L738.333333,943.028529 C738.333333,942.347846 738.444443,941.658663 738.666667,940.960961 C738.88889,940.263259 739.195553,939.710213 739.586667,939.301802 C740.40445,938.433931 741.43555,938 742.68,938 L745,938 L745,941.190691 L742.68,941.190691 C742.395553,941.190691 742.155557,941.28003 741.96,941.458709 C741.764443,941.637387 741.666667,941.862861 741.666667,942.135135 L741.666667,944.381381 Z" id="Page-1"></path>
        </g>
    </g>
</svg>