<?xml version="1.0" encoding="UTF-8"?>
<svg width="211px" height="76px" viewBox="0 0 211 76" version="1.1" xmlns="http://www.w3.org/2000/svg" xmlns:xlink="http://www.w3.org/1999/xlink">
    <!-- Generator: Sketch 44.1 (41455) - http://www.bohemiancoding.com/sketch -->
    <title>logo-mark</title>
    <desc>Created with Sketch.</desc>
    <defs></defs>
    <g id="Symbols" stroke="none" stroke-width="1" fill="none" fill-rule="evenodd">
        <g id="logo-footer" fill="#231815">
            <g id="Group-22">
                <polygon id="Fill-1" points="147.701945 76.0837949 3.69298618 5.72630769 3.69298618 75.2955385 1.94470046 75.2955385 1.94470046 2.92307692 3.20194931 3.53692308 148.468157 74.5082564"></polygon>
                <polygon id="Fill-2" points="206.814032 73.1607179 205.556783 72.5468718 60.2857143 1.57553846 61.0519263 0 205.065747 70.3574872 205.065747 0.78825641 206.814032 0.78825641"></polygon>
                <path d="M10.1950922,107.14441 L13.7568111,107.14441 L13.7568111,102.745179 L10.1950922,102.745179 L10.1950922,107.14441 Z M5.91869585,107.14441 L9.28497235,107.14441 L9.28497235,102.745179 L5.91869585,102.745179 L5.91869585,107.14441 Z M10.1950922,108.007692 L10.1950922,113.254615 L9.28497235,113.254615 L9.28497235,108.007692 L5.91869585,108.007692 L5.91869585,108.985949 L5.04066359,108.985949 L5.04066359,101.896513 L9.28497235,101.896513 L9.28497235,98.4102564 L10.1950922,98.4102564 L10.1950922,101.896513 L14.6669309,101.896513 L14.6669309,108.985949 L13.7568111,108.985949 L13.7568111,108.007692 L10.1950922,108.007692 Z M2.42309677,113.254615 L2.42309677,104.128769 C1.86982949,105.107026 1.2523871,106.03559 0.585354839,106.91641 L0,106.150564 C1.75606452,103.918308 3.15430415,101.098513 3.85342396,98.4102564 L4.74798618,98.6216923 C4.39016129,99.8610769 3.91857143,101.130667 3.33321659,102.370051 L3.33321659,113.254615 L2.42309677,113.254615 Z" id="Fill-17"></path>
                <path d="M33.740553,101.440513 C33.6919355,106.051179 33.6588756,108.349692 33.3010507,108.690718 C33.1551982,108.838821 32.9597558,108.919692 32.6670783,108.919692 C32.357871,108.935282 31.6752811,108.919692 31.2853687,108.887538 L31.1871613,108.023282 C31.5449862,108.038872 32.1147834,108.05641 32.3909309,108.038872 C32.5212258,108.038872 32.5863733,108.023282 32.6349908,107.958 C32.7973733,107.73 32.8294608,105.953744 32.8459908,102.303795 L30.211894,103.396051 L30.211894,109.554974 L29.3173318,109.554974 L29.3173318,103.753641 L26.7318525,104.830308 L26.7318525,110.402667 C26.7318525,111.738513 27.1382949,112.031795 28.1787097,112.063949 C29.2200968,112.080513 30.9596313,112.080513 32.0982535,112.063949 C33.3341106,112.031795 33.4313456,111.917795 33.4799631,110.044103 L34.3745253,110.206821 C34.2121429,112.667077 33.9846129,112.928205 32.1954885,112.960359 C30.9596313,112.992513 29.2200968,112.992513 28.0980046,112.960359 C26.4391751,112.928205 25.8372903,112.439077 25.8372903,110.419231 L25.8372903,105.204462 L24.0812258,105.92159 L23.7720184,105.122615 L25.8372903,104.259333 L25.8372903,100.039385 L26.7318525,100.039385 L26.7318525,103.885179 L29.3173318,102.808513 L29.3173318,98.4102564 L30.211894,98.4102564 L30.211894,102.434359 L32.8459908,101.326513 L33.740553,101.440513 Z M21.7232765,108.919692 L21.7232765,103.119333 L19.7066221,103.119333 L19.7066221,102.255077 L21.7232765,102.255077 L21.7232765,98.4102564 L22.6343687,98.4102564 L22.6343687,102.255077 L24.5041982,102.255077 L24.5041982,103.119333 L22.6343687,103.119333 L22.6343687,108.642974 C23.382106,108.39841 24.1142857,108.153846 24.7151982,107.958 L24.8124332,108.756974 C23.3169585,109.326974 21.0076267,110.142513 19.7066221,110.581949 L19.4470046,109.636821 C20.0323594,109.457538 20.8452442,109.19641 21.7232765,108.919692 L21.7232765,108.919692 Z" id="Fill-18"></path>
                <path d="M67.8700461,110.353949 C68.8618433,109.669949 69.6591705,108.838821 70.1628479,107.877128 L65.8699217,107.877128 C65.8213041,107.94241 65.7561567,108.007692 65.6910092,108.072974 C66.2442765,108.985949 66.9920138,109.734256 67.8700461,110.353949 L67.8700461,110.353949 Z M66.7644839,102.972205 C66.4231889,104.66759 65.5607143,105.906 63.2037373,106.671846 L62.6660276,105.987846 C64.8946544,105.416872 65.6589217,104.32559 65.9185392,102.923487 L66.7644839,102.972205 Z M69.2517558,104.536051 C69.2517558,104.993026 69.3664931,105.091436 69.8701705,105.107026 L71.626235,105.107026 C72.1795023,105.091436 72.2281198,105.041744 72.2611797,104.064462 L73.0410046,104.210615 C72.9437696,105.69359 72.7648571,105.857282 71.72347,105.872872 C71.1546452,105.872872 70.2600829,105.889436 69.7729355,105.872872 C68.6829309,105.857282 68.4233134,105.612718 68.4233134,104.536051 L68.4233134,102.564923 C66.3735991,102.678923 64.1955346,102.792923 62.764235,102.859179 L62.6339401,101.994923 C63.1541475,101.978359 63.8211797,101.962769 64.5368295,101.929641 C65.4313917,100.707795 66.2763641,99.3553846 66.7158664,98.4102564 L67.6425161,98.6713846 C67.1543963,99.5824103 66.3735991,100.773077 65.5451567,101.896513 C67.3498387,101.815641 69.4306682,101.733795 71.0408802,101.651949 C70.4720553,101.081949 69.821553,100.511949 69.1059032,99.9253846 L69.7729355,99.4528205 C71.3335576,100.691231 72.5373272,101.864359 73.3667419,102.988769 C73.0089171,103.249897 72.7969447,103.363897 72.6024747,103.476923 C72.3418848,103.119333 72.0492074,102.744205 71.72347,102.370051 C70.9922627,102.417795 70.146318,102.467487 69.2517558,102.516205 L69.2517558,104.536051 Z M73.5291244,112.488769 L72.9758571,113.254615 C71.0729677,112.879487 69.3178756,112.260769 67.8379585,111.332205 C66.4552765,112.162359 64.796447,112.798615 62.991765,113.238051 L62.4064101,112.521897 C64.1790046,112.146769 65.7882442,111.575795 67.1223088,110.826513 C66.3415115,110.223385 65.6589217,109.507231 65.1056544,108.691692 C64.4551521,109.294821 63.7395023,109.864821 62.975235,110.353949 L62.3247327,109.816103 C64.1303871,108.741385 65.6258618,107.208718 66.390129,105.677026 L67.3177512,105.758872 C67.0892488,106.214872 66.7965714,106.671846 66.4718065,107.126872 L70.4555253,107.126872 L70.6344378,107.126872 L70.7161152,107.126872 L71.3987051,107.355846 C70.8619677,108.741385 69.8867005,109.897949 68.5856959,110.826513 C70.0169954,111.657641 71.7079124,112.195487 73.5291244,112.488769 L73.5291244,112.488769 Z M61.7072903,113.271179 L60.7961982,113.271179 L60.7961982,104.128769 C60.2439032,105.107026 59.6254885,106.052154 58.9584562,106.91641 L58.3410138,106.198308 C60.0970783,103.950462 61.495318,101.130667 62.1788802,98.4102564 L63.10553,98.6051282 C62.7477051,99.8601026 62.2761152,101.115077 61.7072903,102.353487 L61.7072903,113.271179 Z" id="Fill-19"></path>
                <path d="M90.1631198,98.6869744 C91.3172995,99.9741026 92.1963041,101.146256 92.8468065,102.222923 L91.9678018,102.563949 C91.3668894,101.505795 90.5053871,100.299538 89.3988525,99.0445641 L90.1631198,98.6869744 Z M85.7078111,111.869077 L90.960447,111.869077 L90.960447,107.762154 L85.7078111,107.762154 L85.7078111,111.869077 Z M91.6916544,106.964154 C90.5209447,105.971282 89.366765,104.715333 88.2777327,103.037487 C87.2684332,104.683179 86.162871,105.971282 85.0252212,106.964154 L91.6916544,106.964154 Z M87.1877281,98.9958462 C86.6179309,100.316103 85.6426636,101.668513 84.6829539,102.613641 L83.903129,102.239487 C84.8618664,101.309949 85.821576,100.039385 86.3748433,98.7356923 L87.1877281,98.9958462 Z M85.7078111,112.683641 L85.7078111,113.253641 L84.8132488,113.253641 L84.8132488,107.126872 C84.5371014,107.354872 84.244424,107.583846 83.9517465,107.778718 L83.4470968,106.948564 C84.9921613,105.986872 86.5858433,104.341179 87.8382304,102.108923 L88.7162627,102.108923 C90.0493548,104.309026 91.6430369,105.856308 93.2211613,106.899846 L92.6834516,107.73 C92.4238341,107.535128 92.1476866,107.339282 91.8870968,107.111282 L91.8870968,113.253641 L90.960447,113.253641 L90.960447,112.683641 L85.7078111,112.683641 Z M81.4148848,113.253641 L80.5203226,113.253641 L80.5203226,107.143436 C79.8532903,107.974564 79.1220829,108.724821 78.3578157,109.360103 L77.7880184,108.658564 C79.7891152,107.078154 81.6258848,104.585744 82.520447,102.141077 L78.1137558,102.141077 L78.1137558,101.309949 L80.5203226,101.309949 L80.5203226,98.4102564 L81.4148848,98.4102564 L81.4148848,101.309949 L82.7645069,101.309949 L82.9434194,101.309949 L83.0737143,101.309949 L83.6104516,101.538923 C83.1709493,102.955641 82.4552995,104.423026 81.5607373,105.742308 C81.7892396,106.003436 82.0167696,106.280154 82.2442995,106.556872 C82.7645069,105.905026 83.2360968,105.204462 83.5122442,104.699744 L84.0489816,105.057333 C83.7076866,105.611744 83.1544194,106.328872 82.6021244,106.996308 C83.0571843,107.551692 83.4636267,108.072974 83.7407465,108.463692 L83.1544194,109.050256 C82.747977,108.414 82.0974747,107.436718 81.4148848,106.556872 L81.4148848,113.253641 Z" id="Fill-20"></path>
                <path d="M131.735954,99.3846154 L131.735954,102.594154 L130.809304,102.594154 L130.809304,100.215744 L119.18194,100.215744 L119.18194,102.594154 L118.287378,102.594154 L118.287378,99.3846154 L131.735954,99.3846154 Z M128.044912,108.558205 C128.142147,107.857641 128.240355,107.076205 128.33759,106.179795 L121.703244,106.179795 C121.588507,106.538359 121.475714,106.863795 121.394037,107.140513 L120.434327,107.091795 C121.003152,105.511385 121.849097,102.611692 122.272069,100.703897 L123.215249,100.769179 C123.101484,101.258308 122.971189,101.796154 122.808806,102.350564 L129.556917,102.350564 L129.556917,103.148564 L122.597806,103.148564 C122.385834,103.897846 122.174834,104.647128 121.962862,105.347692 L128.418295,105.347692 L128.874327,105.347692 L129.378005,105.347692 C129.24771,106.553949 129.118387,107.629641 128.988092,108.558205 L132.304779,108.558205 L132.304779,109.390308 L128.857797,109.390308 C128.467885,111.686872 128.044912,112.941846 127.523733,113.267282 C127.247585,113.447538 126.90629,113.52841 126.45123,113.544 C125.881433,113.561538 124.630018,113.52841 123.897839,113.495282 L123.768516,112.583282 C124.484166,112.632 125.702521,112.665128 126.24023,112.64759 C126.499848,112.632 126.71182,112.583282 126.890733,112.484872 C127.264115,112.257846 127.60541,111.263026 127.914618,109.390308 L117.654378,109.390308 L117.654378,108.558205 L128.044912,108.558205 Z" id="Fill-21"></path>
                <path d="M146.809327,110.272103 C148.695687,111.151949 150.305899,111.999641 151.671078,112.814205 L150.727899,113.271179 C149.476484,112.488769 147.882802,111.641077 146.012972,110.729077 L146.809327,110.272103 Z M140.484189,107.632564 L148.468157,107.632564 L148.468157,106.23241 L140.484189,106.23241 L140.484189,107.632564 Z M140.484189,105.628308 L148.468157,105.628308 L148.468157,104.242769 L140.484189,104.242769 L140.484189,105.628308 Z M140.484189,103.640615 L148.468157,103.640615 L148.468157,102.255077 L140.484189,102.255077 L140.484189,103.640615 Z M142.890756,110.663795 C141.638369,111.673231 139.800627,112.602769 138.223475,113.254615 L137.361972,112.732359 C138.971212,112.146769 140.775894,111.250359 141.996194,110.289641 L142.890756,110.663795 Z M143.979788,101.571077 L143.979788,100.397949 L137.13347,100.397949 L137.13347,99.6642564 L143.979788,99.6642564 L143.979788,98.4102564 L144.922968,98.4102564 L144.922968,99.6642564 L151.866521,99.6642564 L151.866521,100.397949 L144.922968,100.397949 L144.922968,101.571077 L149.426894,101.571077 L149.426894,108.334103 L139.573097,108.334103 L139.573097,101.571077 L143.979788,101.571077 Z M137.101382,110.159077 L151.898608,110.159077 L151.898608,109.408821 L137.101382,109.408821 L137.101382,110.159077 Z" id="Fill-22"></path>
                <path d="M164.369972,109.783949 L168.761106,109.783949 L168.761106,108.28441 L164.369972,108.28441 L164.369972,109.783949 Z M164.369972,107.60041 L168.761106,107.60041 L168.761106,106.166154 L164.369972,106.166154 L164.369972,107.60041 Z M164.369972,103.754615 L168.565664,103.754615 L168.565664,102.157641 L164.369972,102.157641 L164.369972,103.754615 Z M159.313751,103.754615 L163.427765,103.754615 L163.427765,102.157641 L159.313751,102.157641 L159.313751,103.754615 Z M163.427765,107.60041 L163.427765,106.166154 L157.849392,106.166154 L157.849392,105.498718 L163.427765,105.498718 L163.427765,104.373333 L158.402659,104.373333 L158.402659,101.538923 L163.427765,101.538923 L163.427765,100.431077 L156.548387,100.431077 L156.548387,99.7305128 L163.427765,99.7305128 L163.427765,98.4102564 L164.369972,98.4102564 L164.369972,99.7305128 L171.346585,99.7305128 L171.346585,100.431077 L164.369972,100.431077 L164.369972,101.538923 L169.509816,101.538923 L169.509816,104.373333 L164.369972,104.373333 L164.369972,105.498718 L169.704286,105.498718 L169.704286,107.60041 L171.346585,107.60041 L171.346585,108.28441 L169.704286,108.28441 L169.704286,110.467949 L164.369972,110.467949 L164.369972,111.820359 C164.369972,112.618359 164.158972,113.107487 163.346088,113.221487 C162.906585,113.287744 161.8827,113.271179 161.069816,113.238051 L160.922991,112.391333 C161.590023,112.440051 162.516673,112.455641 162.82588,112.423487 C163.313028,112.391333 163.427765,112.130205 163.427765,111.722923 L163.427765,110.467949 L157.817304,110.467949 L157.817304,109.783949 L163.427765,109.783949 L163.427765,108.28441 L156.548387,108.28441 L156.548387,107.60041 L163.427765,107.60041 Z" id="Fill-23"></path>
                <path d="M188.94029,100.869538 L185.232719,100.869538 C185.719866,102.010513 186.403429,102.955641 187.216313,103.721487 C187.980581,102.988769 188.565935,102.060205 188.94029,100.869538 M187.818198,104.210615 C188.875143,105.025179 190.12753,105.578615 191.49271,105.905026 L190.955972,106.638718 C189.557733,106.248 188.273258,105.628308 187.199783,104.764051 C186.126309,105.596154 184.809747,106.198308 183.232594,106.687436 L182.679327,105.986872 C184.257452,105.546462 185.574014,105.025179 186.598871,104.242769 C185.834604,103.510051 185.184101,102.630205 184.679452,101.571077 C184.338157,102.141077 183.963802,102.677949 183.525272,103.183641 L182.809622,102.759795 C183.915184,101.504821 184.744599,100.006256 185.167571,98.4102564 L185.996986,98.5729744 C185.850161,99.0942564 185.671249,99.5989744 185.460249,100.087128 L191.216562,100.087128 L191.216562,100.869538 L189.801793,100.869538 C189.37882,102.270667 188.71276,103.346359 187.818198,104.210615 M186.907106,107.550718 L189.62288,107.550718 L190.013765,107.550718 L190.500912,107.550718 C190.256853,111.071077 189.964175,112.765487 189.460498,113.074359 C189.265055,113.189333 189.020995,113.237077 188.71276,113.253641 C188.353963,113.253641 187.574138,113.237077 187.102548,113.221487 L187.020871,112.422513 C187.443843,112.455641 188.159493,112.455641 188.500788,112.455641 C188.631083,112.439077 188.744848,112.439077 188.826525,112.374769 C189.119203,112.177949 189.363263,110.957077 189.557733,108.333128 L186.744724,108.333128 C186.224516,110.451385 185.151041,112.177949 182.793092,113.253641 L182.17565,112.601795 C184.354687,111.673231 185.362041,110.158103 185.850161,108.333128 L182.87477,108.333128 L182.87477,107.550718 L186.029074,107.550718 C186.159369,106.932 186.224516,106.280154 186.273134,105.611744 L187.151166,105.643897 C187.086018,106.295744 187.020871,106.932 186.907106,107.550718 M176.630336,111.185077 L175.995392,110.500103 C177.329456,109.147692 178.711166,106.769282 179.491963,104.259333 L176.386276,104.259333 L176.386276,103.460359 L180.142465,103.460359 C179.557111,102.744205 178.776313,101.993949 177.849664,101.260256 L178.386401,100.756513 C178.939668,101.179385 179.443346,101.603231 179.866318,102.026103 C180.565438,101.326513 181.264558,100.462256 181.785737,99.7295385 L177.101926,99.7295385 L177.101926,98.9315385 L182.224267,98.9315385 L182.451797,98.9315385 L182.63071,98.9315385 L183.150917,99.2248205 C182.483885,100.250821 181.42694,101.521385 180.403055,102.563949 C180.679203,102.841641 180.906733,103.119333 181.118705,103.396051 L181.037028,103.460359 L182.64724,103.460359 L182.842682,103.460359 L183.053682,103.460359 L183.492212,103.492513 C183.118829,104.584769 182.500415,105.92159 181.91506,106.964154 L181.150793,106.752718 C181.573765,106.019026 182.045355,105.073897 182.37012,104.259333 L180.435143,104.259333 L180.435143,112.162359 C180.435143,112.748923 180.27276,113.107487 179.703935,113.204923 C179.378198,113.253641 178.533226,113.253641 177.899253,113.237077 L177.768959,112.390359 C178.256106,112.422513 178.971756,112.422513 179.183728,112.406923 C179.476406,112.390359 179.557111,112.259795 179.557111,112.015231 L179.557111,106.213897 C178.760756,108.219128 177.687281,110.010974 176.630336,111.185077" id="Fill-24"></path>
                <path d="M208.305618,113.253641 L207.394525,113.253641 L207.394525,104.487333 L204.370516,104.487333 L204.370516,106.03559 C204.370516,108.772564 203.671396,111.282513 201.557507,113.253641 L200.74365,112.715795 C202.808922,110.875231 203.443866,108.577692 203.443866,106.019026 L203.443866,100.136821 L204.044779,100.136821 C205.865991,99.8104103 208.257,99.0776923 209.459797,98.4102564 L210.028622,99.1264103 C208.69553,99.8104103 206.207286,100.592821 204.370516,100.934821 L204.370516,103.640615 L210.533272,103.640615 L210.533272,104.487333 L208.305618,104.487333 L208.305618,113.253641 Z M197.508641,106.099897 L201.313447,106.099897 L201.313447,102.808513 L197.508641,102.808513 L197.508641,106.099897 Z M195.719516,100.006256 L203.052982,100.006256 L203.052982,99.1741538 L195.719516,99.1741538 L195.719516,100.006256 Z M197.508641,101.993949 L202.223567,101.993949 L202.223567,106.915436 L197.508641,106.915436 C197.491138,109.228564 197.182903,111.412103 196.272783,113.204923 L195.442396,112.732359 C196.353488,110.989231 196.614078,108.935282 196.614078,106.703026 L196.614078,101.993949 L197.020521,101.993949 L197.508641,101.993949 Z" id="Fill-25"></path>
            </g>
        </g>
    </g>
</svg>